<svg width="512" height="512" xmlns="http://www.w3.org/2000/svg">

 <g>
  <title>background</title>
  <rect fill="none" id="canvas_background" height="402" width="582" y="-1" x="-1"/>
 </g>
 <g>
  <title>Layer 1</title>
  <path id="svg_2" fill="#f8f8f2" d="m425.619,86.346c-43.447,-43.446 -103.361,-70.28 -169.654,-70.28c-66.297,0 -126.212,26.834 -169.65,70.279c-43.452,43.442 -70.286,103.359 -70.286,169.652c0,66.292 26.834,126.211 70.286,169.654c43.438,43.447 103.353,70.281 169.65,70.281c66.293,0 126.207,-26.834 169.654,-70.281c43.443,-43.443 70.277,-103.362 70.277,-169.654c0,-66.292 -26.833,-126.209 -70.277,-169.651zm-13.287,326.019c-39.993,40.126 -95.251,64.835 -156.367,64.835c-61.121,0 -116.379,-24.709 -156.372,-64.835c-40.117,-39.984 -64.831,-95.252 -64.831,-156.367c0,-61.111 24.714,-116.377 64.831,-156.365c39.993,-40.124 95.251,-64.833 156.372,-64.833c61.116,0 116.374,24.709 156.367,64.833c40.121,39.988 64.831,95.254 64.831,156.365c0,61.115 -24.71,116.383 -64.831,156.367z"/>
  <polygon id="svg_3" fill="#f8f8f2" points="145,258.257 145,363 198,363 198,249.621 198,218 145,218   "/>
  <path id="svg_4" fill="#f8f8f2" d="m310.3,218.666c-21.657,0 -36.269,9.334 -42.378,18.334l-1.922,0l0,-19l-39,0l0,29.627l0,115.373l44,0l0,-70.331c0,-18.87 1.816,-37.066 24.938,-37.066c23.242,0 23.063,21.518 23.063,38.392l0,69.005l44,0l0,-78.039c0,-7.443 0.221,-14.946 -0.574,-21.325c-3.322,-27.366 -15.191,-44.97 -52.127,-44.97z"/>
  <path id="svg_5" fill="#f8f8f2" d="m172.931,147.722c-13.949,0 -25.244,11.293 -25.244,25.244c0,13.952 11.295,25.242 25.244,25.242c13.95,0 25.24,-11.29 25.24,-25.242c-0.001,-13.951 -11.291,-25.244 -25.24,-25.244z"/>
 </g>
</svg>