<?xml version="1.0" encoding="UTF-8" standalone="no"?>
<!DOCTYPE svg PUBLIC "-//W3C//DTD SVG 1.1//EN" "http://www.w3.org/Graphics/SVG/1.1/DTD/svg11.dtd">
<svg version="1.1" xmlns="http://www.w3.org/2000/svg" xmlns:xlink="http://www.w3.org/1999/xlink" preserveAspectRatio="xMidYMid meet" viewBox="0 0 604.53 167.17" width="604.53" height="167.17"><defs><path d="M73.69 66.53C64.89 27.68 46.53 17.34 41.85 10.02C39.92 6.8 38.21 3.46 36.73 0C36.48 3.46 36.03 5.63 33.09 8.25C27.2 13.5 2.19 33.88 0.08 78.03C-1.88 119.18 30.34 144.56 34.6 147.19C37.87 148.8 41.85 147.22 43.8 145.74C59.33 135.08 80.55 106.67 73.71 66.53" id="c3UgyS4GsK"></path><path d="M34.61 147.2C34.61 147.2 35.96 156.9 36.91 167.17C37.25 167.17 39.94 167.17 40.27 167.17C41.07 159.94 42.3 152.75 43.94 145.66C39.59 143.52 38.23 134.21 38.06 125.27C37.25 135.46 36.67 141.38 34.61 147.2Z" id="dcpvXQaiI"></path><path d="M43.93 145.67C39.54 143.64 38.27 134.13 38.07 125.27C39.16 110.66 39.47 96 39.02 81.35C38.79 73.67 39.13 10.17 37.13 0.88C38.5 4.03 40.07 7.08 41.85 10.02C46.53 17.34 64.89 27.68 73.69 66.53C80.55 106.6 59.44 134.94 43.93 145.67C43.93 145.67 43.93 145.67 43.93 145.67Z" id="ckZEnZD23"></path><path d="M481.15 122.92C483.74 124.99 488.9 125.84 493.45 125.84C499.34 125.84 505.12 124.75 510.77 119.65C516.52 114.42 520.48 106.41 520.48 93.64C520.48 81.36 515.81 71.4 506.23 65.57C500.82 62.17 493.81 60.83 485.82 60.83C483.52 60.83 481.15 60.95 479.81 61.56C479.26 61.99 478.86 62.6 478.7 63.28C478.46 65.47 478.46 82.12 478.46 91.96C478.46 102.05 478.46 116.12 478.7 117.84C478.82 119.31 479.56 121.87 481.15 122.95M456.63 55.36C458.71 55.36 466.65 55.73 470.34 55.73C477.25 55.73 482.02 55.36 494.92 55.36C505.73 55.36 514.83 58.28 521.34 63.87C529.21 70.68 533.42 80.15 533.42 91.69C533.42 108.1 525.94 117.58 518.42 122.92C510.94 128.51 501.22 131.67 487.36 131.67C479.99 131.67 467.32 131.43 456.76 131.31C456.74 131.31 456.56 131.31 456.54 131.31C456.04 130.34 457.44 126.55 458.31 126.45C461.18 126.13 461.94 126.01 463.26 125.47C465.5 124.55 466.02 123.41 466.27 119.4C466.63 111.87 466.51 102.88 466.51 92.67C466.51 85.38 466.63 71.16 466.39 66.66C466.02 62.9 464.43 61.93 461.22 61.2C458.94 60.71 456.63 60.35 454.31 60.1C454.07 59.37 455.96 56.08 456.57 55.36" id="d1OXYQW8Y6"></path><path d="M563.88 61.53C563.39 61.65 562.77 62.87 562.77 63.47C562.65 67.85 562.52 79.27 562.52 87.17C562.59 87.48 562.83 87.72 563.14 87.78C564.73 87.9 568.67 88.02 571.99 88.02C576.66 88.02 579.36 87.42 580.83 86.68C584.77 84.74 586.59 80.48 586.59 75.87C586.59 65.3 579.21 61.29 568.28 61.29C566.8 61.27 565.32 61.35 563.85 61.53M591.75 110.14C591.75 99.44 583.88 93.37 569.5 93.37C568.89 93.37 564.32 93.25 563.24 93.49C562.87 93.61 562.5 93.85 562.5 94.1C562.5 101.76 562.37 114.03 562.75 118.89C563 120.95 564.47 123.87 566.31 124.72C568.28 125.81 572.7 126.05 575.77 126.05C584.25 126.05 591.75 121.32 591.75 110.14M541.67 55.58C542.78 55.58 546.05 55.94 554.41 55.94C562.27 55.94 568.66 55.7 576.27 55.7C585.73 55.7 598.75 59.1 598.75 73.2C598.75 80.1 593.84 85.71 587.45 88.39C587.08 88.51 587.08 88.75 587.45 88.87C596.54 91.17 604.53 96.77 604.53 107.46C604.53 117.91 598.02 124.48 588.55 128.61C582.8 131.16 575.65 132.01 568.42 132.01C562.89 132.01 548.07 131.43 539.84 131.52C538.97 131.16 540.63 127.27 541.36 126.66C543.25 126.6 545.12 126.31 546.94 125.79C549.88 125.06 550.23 124.11 550.6 119.74C550.85 115.97 550.85 102.48 550.85 92.88C550.85 79.75 550.97 70.89 550.85 66.51C550.73 63.11 549.5 62.01 547.16 61.41C545.32 61.04 542.25 60.68 539.79 60.32C539.18 59.71 541.07 56.06 541.68 55.58" id="b4W75TcXxP"></path><path d="M100.91 131.62C100.59 130.84 100.46 130 100.53 129.16C100.51 128.59 100.63 128.03 100.91 127.53C102.5 127.3 104.07 126.98 105.62 126.56C107.8 126.02 108.61 124.84 108.74 122.07C109.1 115.51 109.12 103.22 108.99 94.58C108.99 94.56 108.99 94.35 108.99 94.33C108.99 93.4 108.99 92.13 107.84 91.24C105.82 89.97 103.63 89 101.33 88.36C100.3 88.06 99.73 87.52 99.76 86.89C99.79 86.25 100.44 85.51 101.78 85.24C105.34 84.88 114.67 82.65 118.33 80.96C118.71 81.45 118.88 82.07 118.82 82.69C118.82 83.07 118.76 83.47 118.72 83.88C118.62 85.1 118.5 86.49 118.5 87.87C118.57 88.37 119.03 88.72 119.52 88.65C119.72 88.62 119.9 88.53 120.04 88.39C127.02 82.92 133.27 80.97 136.48 80.97C141.75 80.97 145.86 83.49 149.04 88.68C149.19 88.94 149.46 89.09 149.75 89.1C150.02 89.1 150.27 88.96 150.42 88.74C156.84 83.88 163.19 80.97 167.45 80.97C177.5 80.97 183.51 88.5 183.51 101.11C183.51 104.73 183.48 109.33 183.45 113.61C183.42 117.37 183.39 120.9 183.39 123.34C183.39 123.91 184.18 125.57 185.37 125.9C186.85 126.62 188.97 126.98 191.65 127.45C191.66 127.45 191.75 127.45 191.76 127.45C191.96 128.17 191.53 130.98 191.13 131.56C190.46 131.56 189.54 131.5 188.39 131.44C186.3 131.34 183.43 131.2 180.1 131.2C173.42 131.2 169.93 131.32 166.59 131.54C166.34 130.71 166.25 128.01 166.56 127.45C167.94 127.23 169.31 126.94 170.65 126.56C172.78 125.86 173.4 124.89 173.53 122.07C173.58 120.06 173.97 102.37 173.28 98.17C172.65 93.82 169.37 88.72 162.2 88.72C159.53 88.72 155.24 89.83 151.14 92.94C150.89 93.23 150.74 93.59 150.74 93.98C150.74 93.99 150.74 94.06 150.74 94.06C151.22 96.33 151.22 98.98 151.22 102.98C151.22 105.28 151.22 107.67 151.19 110.07C151.16 114.95 151.14 119.55 151.22 123.03C151.22 125.4 152.65 125.97 153.81 126.43C154.44 126.56 154.93 126.69 155.43 126.8C156.39 127.04 157.39 127.28 158.88 127.51C159.1 128.52 159.08 129.57 158.83 130.57C158.77 130.95 158.62 131.31 158.39 131.62C154.68 131.49 150.87 131.38 145.36 131.38C143.69 131.38 140.97 131.45 138.57 131.51C136.62 131.56 134.78 131.62 133.73 131.62C133.45 130.95 133.32 130.23 133.36 129.5C133.3 128.82 133.44 128.14 133.75 127.53C133.89 127.5 135.08 127.28 135.22 127.26C136.51 127.03 137.63 126.83 138.68 126.56C140.49 125.99 141.18 125 141.31 122.68C141.67 117.28 141.94 101.69 141.18 97.79C139.88 91.53 136.32 88.36 130.59 88.36C127.23 88.36 123 89.97 119.53 92.57C118.86 93.22 118.49 94.13 118.51 95.07C118.51 96.93 118.51 99.14 118.51 101.51C118.51 109.33 118.46 119.07 118.65 123.28C118.77 124.58 119.23 126.12 121.66 126.69C122.2 126.84 123.12 126.99 124.19 127.17C124.8 127.27 125.47 127.38 126.17 127.51C126.39 128.89 126.28 130.3 125.84 131.62C124.77 131.62 123.46 131.55 121.95 131.49C119.65 131.39 116.77 131.26 113.52 131.26C109.68 131.26 107 131.39 104.86 131.49C103.41 131.56 102.17 131.62 100.92 131.62" id="a3durHzrBl"></path><path d="M224.26 86.17C222.19 86.13 220.15 86.7 218.4 87.82C214.13 90.42 211.95 95.6 211.95 103.22C211.95 117.47 219.09 127.43 229.31 127.43C232.05 127.51 234.73 126.57 236.8 124.78C239.94 122.22 241.61 116.98 241.61 109.65C241.61 95.61 234.64 86.17 224.25 86.17M226.22 132.71C207.75 132.71 201.18 119.17 201.18 106.5C201.18 97.64 204.8 90.72 211.94 85.92C216.94 82.82 222.68 81.13 228.55 81.01C242.64 81.01 252.48 91.14 252.48 105.65C252.48 115.51 248.56 123.3 241.12 128.16C237.55 130.35 231.34 132.71 226.22 132.71" id="b6OdUNVT1t"></path><path d="M412.25 86.17C410.17 86.13 408.12 86.7 406.37 87.82C402.1 90.42 399.93 95.6 399.93 103.22C399.93 117.47 407.06 127.43 417.29 127.43C420.03 127.52 422.72 126.57 424.8 124.78C427.94 122.22 429.6 116.98 429.6 109.65C429.6 95.61 422.63 86.17 412.25 86.17M414.21 132.71C395.75 132.71 389.17 119.17 389.17 106.5C389.17 97.64 392.79 90.72 399.94 85.92C404.93 82.82 410.67 81.13 416.55 81.01C430.64 81.01 440.48 91.14 440.48 105.64C440.48 115.51 436.55 123.3 429.11 128.16C425.54 130.35 419.33 132.71 414.21 132.71" id="a1uzhHcLxb"></path><path d="M350.08 85.69C344.39 85.69 340.71 90.18 340.71 97.14C340.71 104.09 343.88 112.36 352.79 112.36C354.32 112.36 357.09 111.68 358.46 110.17C360.53 108.26 361.91 104.33 361.91 100.17C361.91 91.1 357.5 85.69 350.11 85.69M349.37 133.69C347.76 133.67 346.18 134.06 344.77 134.84C340.26 137.71 338.18 140.59 338.18 143.93C338.18 147.06 339.39 149.55 342 151.76C345.16 154.44 349.43 155.75 355.04 155.75C366.08 155.75 371.03 149.81 371.03 143.93C371.03 139.84 368.97 137.09 364.74 135.54C361.49 134.35 356.05 133.69 349.39 133.69M350.12 161.88C343.5 161.88 338.72 160.48 334.64 157.34C330.67 154.28 328.89 149.74 328.89 146.59C328.93 144.57 329.71 142.63 331.07 141.13C332.22 139.82 334.89 137.36 341.07 133.11C341.27 133.03 341.4 132.84 341.4 132.62C341.4 132.38 341.24 132.17 341.01 132.12C335.91 130.17 334.38 126.94 333.91 125.21C333.91 125.15 333.91 125.05 333.86 124.94C333.72 124.26 333.58 123.62 334.51 122.96C335.22 122.45 336.36 121.77 337.58 121.05C339.3 120.1 340.95 119.03 342.52 117.84C342.82 117.51 342.81 117 342.48 116.69C342.43 116.65 342.37 116.61 342.31 116.57C334.78 114.04 330.98 108.45 330.98 99.89C330.93 94.48 333.53 89.38 337.94 86.24C340.97 83.84 348.58 80.96 353.51 80.96C353.54 80.96 353.77 80.96 353.8 80.96C358.87 81.08 361.73 82.15 365.68 83.61C367.93 84.42 370.32 84.8 372.71 84.72C376.91 84.72 378.74 83.39 380.32 81.85C380.57 82.54 380.71 83.28 380.72 84.02C380.82 85.79 380.33 87.54 379.35 89.01C378.49 90.21 376.47 91.07 374.63 91.07C374.44 91.07 374.25 91.07 374.05 91.04C373.08 90.97 372.12 90.81 371.18 90.56C371.13 90.58 370.75 90.71 370.7 90.73C370.55 90.95 370.65 91.19 370.77 91.5C370.8 91.56 370.83 91.62 370.84 91.69C371.18 93.22 371.41 94.78 371.53 96.35C371.53 105.29 368 109.19 364.19 112.08C360.5 114.84 356.12 116.54 351.53 116.98C351.53 116.98 351.53 116.98 351.53 116.98C351.43 116.98 350.96 117.02 350.06 117.1C349.48 117.15 348.74 117.22 348.63 117.22C348.62 117.22 348.53 117.22 348.52 117.22C347.69 117.45 345.53 118.48 345.53 120.39C345.53 121.98 346.5 123.95 351.18 124.31C351.48 124.33 353.9 124.5 354.21 124.52C360.37 124.95 368.08 125.49 371.7 126.71C376.63 128.45 379.89 133.15 379.79 138.37C379.79 146.4 374.09 153.95 364.53 158.56C360.03 160.71 355.09 161.82 350.1 161.8" id="da26sK8bqe"></path><path d="M321.86 127.34C319.15 126.98 317.18 126.61 314.85 125.52C314.39 125.04 314.09 124.44 313.99 123.79C313.74 120.02 313.74 109.09 313.74 101.93C313.74 96.1 312.76 91 310.29 87.35C307.34 83.22 303.16 80.79 297.75 80.79C292.96 80.79 286.57 84.07 281.29 88.57C281.16 88.69 280.35 89.46 280.37 88.26C280.39 87.06 280.57 84.64 280.69 83.08C280.79 82.25 280.49 81.41 279.88 80.83C276.43 82.55 266.75 84.86 263.17 85.21C260.55 85.71 259.89 88.23 262.68 89.09C262.69 89.09 262.72 89.09 262.72 89.09C264.96 89.71 267.09 90.65 269.05 91.88C270.16 92.73 270.03 93.94 270.03 94.92C270.16 103.06 270.16 115.57 269.79 122.38C269.67 125.05 268.92 126.02 266.96 126.51C266.98 126.51 267.12 126.46 267.14 126.45C265.64 126.83 264.12 127.11 262.59 127.3C261.98 127.91 261.98 131.43 262.59 132.16C263.82 132.16 270.07 131.8 275.25 131.8C282.37 131.8 286.05 132.16 287.9 132.16C288.64 131.31 288.88 128.03 288.4 127.3C286.69 127.22 285 126.98 283.35 126.57C281.39 126.09 280.89 125.11 280.77 122.93C280.53 117.21 280.53 105.06 280.53 96.8C280.53 94.5 281.14 93.4 281.88 92.77C284.33 90.58 288.4 89.13 291.96 89.13C295.41 89.13 297.71 90.22 299.43 91.68C301.44 93.43 302.7 95.89 302.95 98.55C303.44 103.15 303.32 112.4 303.32 120.4C303.32 124.78 302.95 125.88 301.36 126.36C300.62 126.73 298.65 127.09 296.32 127.34C295.58 128.07 295.82 131.47 296.32 132.2C299.51 132.2 303.22 131.83 308.6 131.83C315.36 131.83 319.66 132.2 321.38 132.2C322.12 131.35 322.37 128.17 321.88 127.34" id="h4EYvoeT7v"></path></defs><g><g><g><use xlink:href="#c3UgyS4GsK" opacity="1" fill="#10aa50" fill-opacity="1"></use><g><use xlink:href="#c3UgyS4GsK" opacity="1" fill-opacity="0" stroke="#000000" stroke-width="1" stroke-opacity="0"></use></g></g><g><use xlink:href="#dcpvXQaiI" opacity="1" fill="#b8c4c2" fill-opacity="1"></use><g><use xlink:href="#dcpvXQaiI" opacity="1" fill-opacity="0" stroke="#000000" stroke-width="1" stroke-opacity="0"></use></g></g><g><use xlink:href="#ckZEnZD23" opacity="1" fill="#12924f" fill-opacity="1"></use><g><use xlink:href="#ckZEnZD23" opacity="1" fill-opacity="0" stroke="#000000" stroke-width="1" stroke-opacity="0"></use></g></g><g><use xlink:href="#d1OXYQW8Y6" opacity="1" fill="#ffffff" fill-opacity="1"></use><g><use xlink:href="#d1OXYQW8Y6" opacity="1" fill-opacity="0" stroke="#ffffff" stroke-width="1" stroke-opacity="0"></use></g></g><g><use xlink:href="#b4W75TcXxP" opacity="1" fill="#ffffff" fill-opacity="1"></use><g><use xlink:href="#b4W75TcXxP" opacity="1" fill-opacity="0" stroke="#ffffff" stroke-width="1" stroke-opacity="0"></use></g></g><g><use xlink:href="#a3durHzrBl" opacity="1" fill="#ffffff" fill-opacity="1"></use><g><use xlink:href="#a3durHzrBl" opacity="1" fill-opacity="0" stroke="#ffffff" stroke-width="1" stroke-opacity="0"></use></g></g><g><use xlink:href="#b6OdUNVT1t" opacity="1" fill="#ffffff" fill-opacity="1"></use><g><use xlink:href="#b6OdUNVT1t" opacity="1" fill-opacity="0" stroke="#ffffff" stroke-width="1" stroke-opacity="0"></use></g></g><g><use xlink:href="#a1uzhHcLxb" opacity="1" fill="#ffffff" fill-opacity="1"></use><g><use xlink:href="#a1uzhHcLxb" opacity="1" fill-opacity="0" stroke="#ffffff" stroke-width="1" stroke-opacity="0"></use></g></g><g><use xlink:href="#da26sK8bqe" opacity="1" fill="#ffffff" fill-opacity="1"></use><g><use xlink:href="#da26sK8bqe" opacity="1" fill-opacity="0" stroke="#ffffff" stroke-width="1" stroke-opacity="0"></use></g></g><g><use xlink:href="#h4EYvoeT7v" opacity="1" fill="#ffffff" fill-opacity="1"></use><g><use xlink:href="#h4EYvoeT7v" opacity="1" fill-opacity="0" stroke="#ffffff" stroke-width="1" stroke-opacity="0"></use></g></g></g></g></svg>